<?xml version="1.0" encoding="UTF-8"?>
<!DOCTYPE svg  PUBLIC '-//W3C//DTD SVG 20010904//EN'  'http://www.w3.org/TR/2001/REC-SVG-20010904/DTD/svg10.dtd'>
<svg width="1280pt" height="1253pt" version="1.0" viewBox="0 0 1280 1253" xmlns="http://www.w3.org/2000/svg">
<metadata>Created by potrace 1.15, written by Peter Selinger 2001-2017</metadata>
<g transform="translate(0 1253) scale(.1 -.1)" fill="#1364fe">
<path d="m12000 12520c-192-27-395-98-655-230-446-225-961-590-1620-1149-926-785-2158-2e3 -3466-3416-661-717-1389-1537-1913-2157-87-104-159-188-160-188s-67 34-146 76c-255 134-875 442-1078 536-849 391-1441 595-1912 659-134 18-368 13-479-10-224-48-405-181-495-366-52-104-69-183-70-310-1-105 1-113 32-177 29-59 55-87 235-254 438-407 919-904 1273-1315 792-921 1625-2167 2579-3858 168-297 234-355 405-355 66 0 96 5 132 21 113 51 158 111 238 313 135 341 398 964 565 1335 1285 2866 2820 5295 4654 7365 520 587 971 1049 1821 1866 665 640 790 788 844 1005 81 328-187 601-604 614-63 2-144 0-180-5z"/>
</g>
</svg>
